<mxfile host="Electron" agent="Mozilla/5.0 (Windows NT 10.0; Win64; x64) AppleWebKit/537.36 (KHTML, like Gecko) draw.io/24.7.8 Chrome/128.0.6613.36 Electron/32.0.1 Safari/537.36" version="24.7.8">
  <diagram name="Page-1" id="N3utokMZn4jJm-DTOnFt">
    <mxGraphModel dx="819" dy="478" grid="1" gridSize="10" guides="1" tooltips="1" connect="1" arrows="1" fold="1" page="1" pageScale="1" pageWidth="1100" pageHeight="850" math="0" shadow="0">
      <root>
        <mxCell id="0" />
        <mxCell id="1" parent="0" />
        <mxCell id="3hi7CaIwYL8nZbIwqxdE-1" value="Slave&lt;div&gt;SoC&lt;/div&gt;" style="rounded=0;whiteSpace=wrap;html=1;" parent="1" vertex="1">
          <mxGeometry x="200" y="70" width="80" height="251" as="geometry" />
        </mxCell>
        <mxCell id="3hi7CaIwYL8nZbIwqxdE-10" value="" style="rounded=0;whiteSpace=wrap;html=1;resizable=1;" parent="1" vertex="1">
          <mxGeometry x="320" y="250" width="50" height="60" as="geometry" />
        </mxCell>
        <mxCell id="3hi7CaIwYL8nZbIwqxdE-11" value="" style="triangle;whiteSpace=wrap;html=1;resizable=1;" parent="1" vertex="1">
          <mxGeometry x="320" y="270" width="10" height="20" as="geometry" />
        </mxCell>
        <mxCell id="3hi7CaIwYL8nZbIwqxdE-12" value="T" style="text;html=1;align=center;verticalAlign=middle;resizable=1;points=[];autosize=1;strokeColor=none;fillColor=none;" parent="1" vertex="1">
          <mxGeometry x="326" y="271" width="20" height="20" as="geometry" />
        </mxCell>
        <mxCell id="3hi7CaIwYL8nZbIwqxdE-13" value="Q" style="text;html=1;align=center;verticalAlign=middle;resizable=1;points=[];autosize=1;strokeColor=none;fillColor=none;" parent="1" vertex="1">
          <mxGeometry x="350" y="271" width="20" height="20" as="geometry" />
        </mxCell>
        <mxCell id="3hi7CaIwYL8nZbIwqxdE-14" value="MMV" style="text;html=1;align=center;verticalAlign=middle;resizable=0;points=[];autosize=1;strokeColor=none;fillColor=none;" parent="1" vertex="1">
          <mxGeometry x="320" y="244" width="50" height="30" as="geometry" />
        </mxCell>
        <mxCell id="3hi7CaIwYL8nZbIwqxdE-16" value="" style="endArrow=none;html=1;rounded=0;exitX=1;exitY=0.786;exitDx=0;exitDy=0;exitPerimeter=0;entryX=0;entryY=0.5;entryDx=0;entryDy=0;" parent="1" target="3hi7CaIwYL8nZbIwqxdE-11" edge="1">
          <mxGeometry width="50" height="50" relative="1" as="geometry">
            <mxPoint x="280" y="280" as="sourcePoint" />
            <mxPoint x="300" y="280" as="targetPoint" />
          </mxGeometry>
        </mxCell>
        <mxCell id="3hi7CaIwYL8nZbIwqxdE-18" value="" style="pointerEvents=1;verticalLabelPosition=bottom;shadow=0;dashed=0;align=center;html=1;verticalAlign=top;shape=mxgraph.electrical.resistors.resistor_2;" parent="1" vertex="1">
          <mxGeometry x="390" y="275" width="60" height="10" as="geometry" />
        </mxCell>
        <mxCell id="3hi7CaIwYL8nZbIwqxdE-22" value="" style="verticalLabelPosition=bottom;shadow=0;dashed=0;align=center;html=1;verticalAlign=top;shape=mxgraph.electrical.transistors.npn_transistor_5;" parent="1" vertex="1">
          <mxGeometry x="441" y="250" width="40" height="60" as="geometry" />
        </mxCell>
        <mxCell id="3hi7CaIwYL8nZbIwqxdE-23" value="" style="pointerEvents=1;verticalLabelPosition=bottom;shadow=0;dashed=0;align=center;html=1;verticalAlign=top;shape=mxgraph.electrical.signal_sources.protective_earth;" parent="1" vertex="1">
          <mxGeometry x="465" y="310" width="30" height="20" as="geometry" />
        </mxCell>
        <mxCell id="3hi7CaIwYL8nZbIwqxdE-24" value="" style="endArrow=none;html=1;rounded=0;entryX=0;entryY=0.5;entryDx=0;entryDy=0;entryPerimeter=0;exitX=1;exitY=0.5;exitDx=0;exitDy=0;exitPerimeter=0;" parent="1" source="3hi7CaIwYL8nZbIwqxdE-18" target="3hi7CaIwYL8nZbIwqxdE-22" edge="1">
          <mxGeometry width="50" height="50" relative="1" as="geometry">
            <mxPoint x="381" y="270" as="sourcePoint" />
            <mxPoint x="431" y="220" as="targetPoint" />
          </mxGeometry>
        </mxCell>
        <mxCell id="3hi7CaIwYL8nZbIwqxdE-36" value="" style="pointerEvents=1;fillColor=strokeColor;verticalLabelPosition=bottom;shadow=0;dashed=0;align=center;html=1;verticalAlign=top;shape=mxgraph.electrical.diodes.diode;direction=north;" parent="1" vertex="1">
          <mxGeometry x="530" y="240" width="20" height="35" as="geometry" />
        </mxCell>
        <mxCell id="3hi7CaIwYL8nZbIwqxdE-38" value="" style="endArrow=none;html=1;rounded=0;entryX=0.25;entryY=1;entryDx=0;entryDy=0;exitX=0;exitY=0.5;exitDx=0;exitDy=0;exitPerimeter=0;" parent="1" source="3hi7CaIwYL8nZbIwqxdE-36" target="9ykz3Mf3hef28GaojBVc-1" edge="1">
          <mxGeometry width="50" height="50" relative="1" as="geometry">
            <mxPoint x="540" y="300" as="sourcePoint" />
            <mxPoint x="600" y="300" as="targetPoint" />
            <Array as="points">
              <mxPoint x="540" y="300" />
              <mxPoint x="630" y="300" />
            </Array>
          </mxGeometry>
        </mxCell>
        <mxCell id="3hi7CaIwYL8nZbIwqxdE-39" value="" style="endArrow=none;html=1;rounded=0;exitX=1;exitY=0.5;exitDx=0;exitDy=0;exitPerimeter=0;" parent="1" edge="1">
          <mxGeometry width="50" height="50" relative="1" as="geometry">
            <mxPoint x="510" y="265" as="sourcePoint" />
            <mxPoint x="510" y="257.5" as="targetPoint" />
          </mxGeometry>
        </mxCell>
        <mxCell id="3hi7CaIwYL8nZbIwqxdE-41" value="" style="endArrow=none;html=1;rounded=0;entryX=0;entryY=0.5;entryDx=0;entryDy=0;entryPerimeter=0;exitX=1;exitY=0.5;exitDx=0;exitDy=0;" parent="1" source="3hi7CaIwYL8nZbIwqxdE-10" target="3hi7CaIwYL8nZbIwqxdE-18" edge="1">
          <mxGeometry width="50" height="50" relative="1" as="geometry">
            <mxPoint x="380" y="281" as="sourcePoint" />
            <mxPoint x="390" y="281" as="targetPoint" />
          </mxGeometry>
        </mxCell>
        <mxCell id="3hi7CaIwYL8nZbIwqxdE-43" value="" style="pointerEvents=1;verticalLabelPosition=bottom;shadow=0;dashed=0;align=center;html=1;verticalAlign=top;shape=mxgraph.electrical.resistors.resistor_2;direction=south;" parent="1" vertex="1">
          <mxGeometry x="675" y="130" width="10" height="60" as="geometry" />
        </mxCell>
        <mxCell id="3hi7CaIwYL8nZbIwqxdE-48" value="" style="rounded=0;whiteSpace=wrap;html=1;resizable=1;" parent="1" vertex="1">
          <mxGeometry x="320" y="80" width="50" height="60" as="geometry" />
        </mxCell>
        <mxCell id="3hi7CaIwYL8nZbIwqxdE-49" value="" style="triangle;whiteSpace=wrap;html=1;resizable=1;" parent="1" vertex="1">
          <mxGeometry x="320" y="100" width="10" height="20" as="geometry" />
        </mxCell>
        <mxCell id="3hi7CaIwYL8nZbIwqxdE-50" value="T" style="text;html=1;align=center;verticalAlign=middle;resizable=1;points=[];autosize=1;strokeColor=none;fillColor=none;" parent="1" vertex="1">
          <mxGeometry x="326" y="101" width="20" height="20" as="geometry" />
        </mxCell>
        <mxCell id="3hi7CaIwYL8nZbIwqxdE-51" value="Q" style="text;html=1;align=center;verticalAlign=middle;resizable=1;points=[];autosize=1;strokeColor=none;fillColor=none;" parent="1" vertex="1">
          <mxGeometry x="350" y="101" width="20" height="20" as="geometry" />
        </mxCell>
        <mxCell id="3hi7CaIwYL8nZbIwqxdE-52" value="MMV" style="text;html=1;align=center;verticalAlign=middle;resizable=0;points=[];autosize=1;strokeColor=none;fillColor=none;" parent="1" vertex="1">
          <mxGeometry x="320" y="74" width="50" height="30" as="geometry" />
        </mxCell>
        <mxCell id="3hi7CaIwYL8nZbIwqxdE-53" value="" style="pointerEvents=1;verticalLabelPosition=bottom;shadow=0;dashed=0;align=center;html=1;verticalAlign=top;shape=mxgraph.electrical.resistors.resistor_2;" parent="1" vertex="1">
          <mxGeometry x="390" y="105" width="60" height="10" as="geometry" />
        </mxCell>
        <mxCell id="3hi7CaIwYL8nZbIwqxdE-54" value="" style="verticalLabelPosition=bottom;shadow=0;dashed=0;align=center;html=1;verticalAlign=top;shape=mxgraph.electrical.transistors.npn_transistor_5;" parent="1" vertex="1">
          <mxGeometry x="441" y="80" width="40" height="60" as="geometry" />
        </mxCell>
        <mxCell id="3hi7CaIwYL8nZbIwqxdE-55" value="" style="pointerEvents=1;verticalLabelPosition=bottom;shadow=0;dashed=0;align=center;html=1;verticalAlign=top;shape=mxgraph.electrical.signal_sources.protective_earth;" parent="1" vertex="1">
          <mxGeometry x="465" y="140" width="30" height="20" as="geometry" />
        </mxCell>
        <mxCell id="3hi7CaIwYL8nZbIwqxdE-56" value="" style="endArrow=none;html=1;rounded=0;entryX=0;entryY=0.5;entryDx=0;entryDy=0;entryPerimeter=0;exitX=1;exitY=0.5;exitDx=0;exitDy=0;exitPerimeter=0;" parent="1" source="3hi7CaIwYL8nZbIwqxdE-53" target="3hi7CaIwYL8nZbIwqxdE-54" edge="1">
          <mxGeometry width="50" height="50" relative="1" as="geometry">
            <mxPoint x="381" y="100" as="sourcePoint" />
            <mxPoint x="431" y="50" as="targetPoint" />
          </mxGeometry>
        </mxCell>
        <mxCell id="3hi7CaIwYL8nZbIwqxdE-62" value="" style="endArrow=none;html=1;rounded=0;entryX=0;entryY=0.5;entryDx=0;entryDy=0;entryPerimeter=0;exitX=1;exitY=0.5;exitDx=0;exitDy=0;" parent="1" source="3hi7CaIwYL8nZbIwqxdE-48" target="3hi7CaIwYL8nZbIwqxdE-53" edge="1">
          <mxGeometry width="50" height="50" relative="1" as="geometry">
            <mxPoint x="380" y="111" as="sourcePoint" />
            <mxPoint x="390" y="111" as="targetPoint" />
          </mxGeometry>
        </mxCell>
        <mxCell id="3hi7CaIwYL8nZbIwqxdE-66" value="V&lt;sub&gt;dd&lt;/sub&gt;" style="verticalLabelPosition=top;verticalAlign=bottom;shape=mxgraph.electrical.signal_sources.vdd;shadow=0;dashed=0;align=center;strokeWidth=1;fontSize=24;html=1;flipV=1;noLabel=1;" parent="1" vertex="1">
          <mxGeometry x="670" y="119.63" width="20" height="12" as="geometry" />
        </mxCell>
        <mxCell id="3hi7CaIwYL8nZbIwqxdE-67" value="+12V" style="text;html=1;align=center;verticalAlign=middle;resizable=0;points=[];autosize=1;strokeColor=none;fillColor=none;" parent="1" vertex="1">
          <mxGeometry x="655" y="94.38" width="50" height="30" as="geometry" />
        </mxCell>
        <mxCell id="3hi7CaIwYL8nZbIwqxdE-69" value="" style="endArrow=none;html=1;rounded=0;exitX=1;exitY=0.786;exitDx=0;exitDy=0;exitPerimeter=0;entryX=0;entryY=0.5;entryDx=0;entryDy=0;" parent="1" edge="1">
          <mxGeometry width="50" height="50" relative="1" as="geometry">
            <mxPoint x="280" y="109.66" as="sourcePoint" />
            <mxPoint x="320" y="109.66" as="targetPoint" />
          </mxGeometry>
        </mxCell>
        <mxCell id="3hi7CaIwYL8nZbIwqxdE-73" value="V&lt;sub&gt;dd&lt;/sub&gt;" style="text;html=1;align=center;verticalAlign=middle;resizable=1;points=[];autosize=1;strokeColor=none;fillColor=none;strokeWidth=1;rotation=270;" parent="1" vertex="1">
          <mxGeometry x="492" y="198.25" width="40" height="20" as="geometry" />
        </mxCell>
        <mxCell id="3hi7CaIwYL8nZbIwqxdE-75" value="" style="endArrow=none;html=1;rounded=0;exitX=1;exitY=0;exitDx=0;exitDy=0;exitPerimeter=0;" parent="1" source="3hi7CaIwYL8nZbIwqxdE-22" edge="1">
          <mxGeometry width="50" height="50" relative="1" as="geometry">
            <mxPoint x="420" y="270" as="sourcePoint" />
            <mxPoint x="540" y="300" as="targetPoint" />
            <Array as="points">
              <mxPoint x="510" y="250" />
              <mxPoint x="510" y="300" />
            </Array>
          </mxGeometry>
        </mxCell>
        <mxCell id="3hi7CaIwYL8nZbIwqxdE-83" value="" style="pointerEvents=1;fillColor=strokeColor;verticalLabelPosition=bottom;shadow=0;dashed=0;align=center;html=1;verticalAlign=top;shape=mxgraph.electrical.diodes.diode;direction=south;" parent="1" vertex="1">
          <mxGeometry x="530" y="155" width="20" height="35" as="geometry" />
        </mxCell>
        <mxCell id="3hi7CaIwYL8nZbIwqxdE-85" value="" style="endArrow=none;html=1;rounded=0;entryX=0.25;entryY=0;entryDx=0;entryDy=0;exitX=0;exitY=0.5;exitDx=0;exitDy=0;exitPerimeter=0;" parent="1" source="3hi7CaIwYL8nZbIwqxdE-83" target="9ykz3Mf3hef28GaojBVc-1" edge="1">
          <mxGeometry width="50" height="50" relative="1" as="geometry">
            <mxPoint x="540" y="129.75" as="sourcePoint" />
            <mxPoint x="600" y="129.75" as="targetPoint" />
            <Array as="points">
              <mxPoint x="540" y="129.75" />
              <mxPoint x="630" y="130" />
            </Array>
          </mxGeometry>
        </mxCell>
        <mxCell id="3hi7CaIwYL8nZbIwqxdE-89" value="" style="endArrow=none;html=1;rounded=0;exitX=1;exitY=0;exitDx=0;exitDy=0;exitPerimeter=0;" parent="1" edge="1">
          <mxGeometry width="50" height="50" relative="1" as="geometry">
            <mxPoint x="480" y="79.75" as="sourcePoint" />
            <mxPoint x="540" y="129.75" as="targetPoint" />
            <Array as="points">
              <mxPoint x="510" y="79.75" />
              <mxPoint x="510" y="129.75" />
            </Array>
          </mxGeometry>
        </mxCell>
        <mxCell id="3hi7CaIwYL8nZbIwqxdE-91" value="GND" style="text;html=1;align=center;verticalAlign=middle;resizable=0;points=[];autosize=1;strokeColor=none;fillColor=none;" parent="1" vertex="1">
          <mxGeometry x="476" y="315" width="50" height="30" as="geometry" />
        </mxCell>
        <mxCell id="3hi7CaIwYL8nZbIwqxdE-92" value="GND" style="text;html=1;align=center;verticalAlign=middle;resizable=0;points=[];autosize=1;strokeColor=none;fillColor=none;" parent="1" vertex="1">
          <mxGeometry x="476" y="143" width="50" height="30" as="geometry" />
        </mxCell>
        <mxCell id="3hi7CaIwYL8nZbIwqxdE-93" value="" style="rounded=0;whiteSpace=wrap;html=1;" parent="1" vertex="1">
          <mxGeometry x="780" y="140" width="80" height="100" as="geometry" />
        </mxCell>
        <mxCell id="3hi7CaIwYL8nZbIwqxdE-94" value="L" style="text;html=1;align=center;verticalAlign=middle;resizable=0;points=[];autosize=1;strokeColor=none;fillColor=none;" parent="1" vertex="1">
          <mxGeometry x="774" y="165" width="30" height="30" as="geometry" />
        </mxCell>
        <mxCell id="3hi7CaIwYL8nZbIwqxdE-95" value="U" style="text;html=1;align=center;verticalAlign=middle;resizable=0;points=[];autosize=1;strokeColor=none;fillColor=none;" parent="1" vertex="1">
          <mxGeometry x="774" y="184.75" width="30" height="30" as="geometry" />
        </mxCell>
        <mxCell id="3hi7CaIwYL8nZbIwqxdE-96" value="EM" style="text;html=1;align=center;verticalAlign=middle;resizable=0;points=[];autosize=1;strokeColor=none;fillColor=none;" parent="1" vertex="1">
          <mxGeometry x="800" y="173" width="40" height="30" as="geometry" />
        </mxCell>
        <mxCell id="3hi7CaIwYL8nZbIwqxdE-98" value="P&lt;span style=&quot;font-size: 10px;&quot;&gt;&lt;sub&gt;0,0&lt;/sub&gt;&lt;/span&gt;" style="text;html=1;align=center;verticalAlign=middle;resizable=1;points=[];autosize=1;strokeColor=none;fillColor=none;" parent="1" vertex="1">
          <mxGeometry x="245" y="95" width="40" height="30" as="geometry" />
        </mxCell>
        <mxCell id="3hi7CaIwYL8nZbIwqxdE-99" value="P&lt;span style=&quot;font-size: 10px;&quot;&gt;&lt;sub&gt;0,1&lt;/sub&gt;&lt;/span&gt;" style="text;html=1;align=center;verticalAlign=middle;resizable=1;points=[];autosize=1;strokeColor=none;fillColor=none;" parent="1" vertex="1">
          <mxGeometry x="250" y="265" width="30" height="30" as="geometry" />
        </mxCell>
        <mxCell id="9ykz3Mf3hef28GaojBVc-1" value="" style="rounded=0;whiteSpace=wrap;html=1;" vertex="1" parent="1">
          <mxGeometry x="620" y="199.75" width="40" height="20" as="geometry" />
        </mxCell>
        <mxCell id="9ykz3Mf3hef28GaojBVc-4" value="V&lt;sub&gt;dd&lt;/sub&gt;" style="verticalLabelPosition=top;verticalAlign=bottom;shape=mxgraph.electrical.signal_sources.vdd;shadow=0;dashed=0;align=center;strokeWidth=1;fontSize=24;html=1;flipV=1;noLabel=1;direction=south;" vertex="1" parent="1">
          <mxGeometry x="520" y="201.75" width="12" height="16" as="geometry" />
        </mxCell>
        <mxCell id="9ykz3Mf3hef28GaojBVc-6" value="" style="endArrow=none;html=1;rounded=0;exitX=0;exitY=0.5;exitDx=0;exitDy=0;" edge="1" parent="1" source="9ykz3Mf3hef28GaojBVc-1">
          <mxGeometry width="50" height="50" relative="1" as="geometry">
            <mxPoint x="570" y="279.75" as="sourcePoint" />
            <mxPoint x="590" y="209.75" as="targetPoint" />
          </mxGeometry>
        </mxCell>
        <mxCell id="9ykz3Mf3hef28GaojBVc-7" value="" style="endArrow=none;html=1;rounded=0;entryX=0.25;entryY=0;entryDx=0;entryDy=0;exitX=0.75;exitY=1;exitDx=0;exitDy=0;" edge="1" parent="1" source="9ykz3Mf3hef28GaojBVc-1" target="9ykz3Mf3hef28GaojBVc-1">
          <mxGeometry width="50" height="50" relative="1" as="geometry">
            <mxPoint x="570" y="279.75" as="sourcePoint" />
            <mxPoint x="620" y="229.75" as="targetPoint" />
          </mxGeometry>
        </mxCell>
        <mxCell id="9ykz3Mf3hef28GaojBVc-8" value="" style="endArrow=none;dashed=1;html=1;rounded=0;exitX=1;exitY=0.5;exitDx=0;exitDy=0;" edge="1" parent="1" source="9ykz3Mf3hef28GaojBVc-1">
          <mxGeometry width="50" height="50" relative="1" as="geometry">
            <mxPoint x="690" y="211.75" as="sourcePoint" />
            <mxPoint x="720" y="210" as="targetPoint" />
          </mxGeometry>
        </mxCell>
        <mxCell id="9ykz3Mf3hef28GaojBVc-10" value="" style="html=1;shape=mxgraph.electrical.electro-mechanical.twoWaySwitch;aspect=fixed;elSwitchState=2;" vertex="1" parent="1">
          <mxGeometry x="680" y="177" width="75" height="26" as="geometry" />
        </mxCell>
        <mxCell id="9ykz3Mf3hef28GaojBVc-12" value="" style="endArrow=none;dashed=1;html=1;rounded=0;" edge="1" parent="1">
          <mxGeometry width="50" height="50" relative="1" as="geometry">
            <mxPoint x="720" y="210" as="sourcePoint" />
            <mxPoint x="720" y="190.75" as="targetPoint" />
          </mxGeometry>
        </mxCell>
        <mxCell id="9ykz3Mf3hef28GaojBVc-13" value="" style="endArrow=none;html=1;rounded=0;entryX=0;entryY=0.4;entryDx=0;entryDy=0;entryPerimeter=0;exitX=1;exitY=0.12;exitDx=0;exitDy=0;" edge="1" parent="1" source="9ykz3Mf3hef28GaojBVc-10" target="3hi7CaIwYL8nZbIwqxdE-93">
          <mxGeometry width="50" height="50" relative="1" as="geometry">
            <mxPoint x="760" y="180" as="sourcePoint" />
            <mxPoint x="780" y="160" as="targetPoint" />
          </mxGeometry>
        </mxCell>
        <mxCell id="9ykz3Mf3hef28GaojBVc-14" value="" style="endArrow=none;html=1;rounded=0;" edge="1" parent="1">
          <mxGeometry width="50" height="50" relative="1" as="geometry">
            <mxPoint x="755" y="200" as="sourcePoint" />
            <mxPoint x="780" y="200" as="targetPoint" />
          </mxGeometry>
        </mxCell>
        <mxCell id="9ykz3Mf3hef28GaojBVc-15" value="" style="endArrow=none;html=1;rounded=0;exitX=1;exitY=0.5;exitDx=0;exitDy=0;exitPerimeter=0;entryX=1;entryY=0.5;entryDx=0;entryDy=0;entryPerimeter=0;" edge="1" parent="1" source="3hi7CaIwYL8nZbIwqxdE-83" target="3hi7CaIwYL8nZbIwqxdE-36">
          <mxGeometry width="50" height="50" relative="1" as="geometry">
            <mxPoint x="580" y="190" as="sourcePoint" />
            <mxPoint x="630" y="140" as="targetPoint" />
          </mxGeometry>
        </mxCell>
        <mxCell id="9ykz3Mf3hef28GaojBVc-16" value="" style="endArrow=none;html=1;rounded=0;exitX=0.5;exitY=0;exitDx=0;exitDy=0;exitPerimeter=0;" edge="1" parent="1" source="9ykz3Mf3hef28GaojBVc-4">
          <mxGeometry width="50" height="50" relative="1" as="geometry">
            <mxPoint x="580" y="190" as="sourcePoint" />
            <mxPoint x="590" y="210" as="targetPoint" />
          </mxGeometry>
        </mxCell>
      </root>
    </mxGraphModel>
  </diagram>
</mxfile>
